# xmcd
#
# Track frame offsets:
#	150
#	13823
#	41301
#	68436
#	102111
#	135811
#	172490
#	193387
#	226057
#	252120
#	294379
#	319450
#
# Disc length: 4439 seconds
#
# Revision: 1
# Processed by: cddbd v1.5.2PL0 Copyright (c) Steve Scherf et al.
# Submitted via: audiograbber 1.83.01
#
DISCID=a211550c
DTITLE=Grateful Dead - 73-11-11 Winterland Arena, San Francisco CA
DYEAR=1900
DGENRE=
TTITLE0=Promised Land
TTITLE1=Bertha
TTITLE2=Greatest Story Ever Told
TTITLE3=Sugaree
TTITLE4=Black Throated Wind
TTITLE5=To Lay Me Down
TTITLE6=El Paso
TTITLE7=Ramble On Rose
TTITLE8=Me and Bobby McGee
TTITLE9=China Cat Sunflower
TTITLE10=I Know You Rider
TTITLE11=Me and My Uncle
EXTD=
EXTT0=
EXTT1=
EXTT2=
EXTT3=
EXTT4=
EXTT5=
EXTT6=
EXTT7=
EXTT8=
EXTT9=
EXTT10=
EXTT11=
PLAYORDER=
